<svg version="1.1" xmlns="http://www.w3.org/2000/svg" style="display: block;" viewBox="0 0 2048 1153" width="1672" height="941" preserveAspectRatio="none">
<defs>
	<linearGradient id="Gradient1" gradientUnits="userSpaceOnUse" x1="1763.73" y1="704.302" x2="1772.23" y2="719.614">
		<stop class="stop0" offset="0" stop-opacity="1" stop-color="rgb(255,241,102)"/>
		<stop class="stop1" offset="1" stop-opacity="1" stop-color="rgb(246,213,121)"/>
	</linearGradient>
	<linearGradient id="Gradient2" gradientUnits="userSpaceOnUse" x1="1882.32" y1="606.031" x2="1919.29" y2="687.557">
		<stop class="stop0" offset="0" stop-opacity="1" stop-color="rgb(154,204,245)"/>
		<stop class="stop1" offset="1" stop-opacity="1" stop-color="rgb(195,234,254)"/>
	</linearGradient>
	<linearGradient id="Gradient3" gradientUnits="userSpaceOnUse" x1="1603.13" y1="600.349" x2="1746.89" y2="786.481">
		<stop class="stop0" offset="0" stop-opacity="1" stop-color="rgb(42,127,212)"/>
		<stop class="stop1" offset="1" stop-opacity="1" stop-color="rgb(184,224,252)"/>
	</linearGradient>
	<linearGradient id="Gradient4" gradientUnits="userSpaceOnUse" x1="1928.96" y1="646.858" x2="1931.04" y2="695.1">
		<stop class="stop0" offset="0" stop-opacity="1" stop-color="rgb(0,23,79)"/>
		<stop class="stop1" offset="1" stop-opacity="1" stop-color="rgb(0,50,136)"/>
	</linearGradient>
	<linearGradient id="Gradient5" gradientUnits="userSpaceOnUse" x1="1650.89" y1="1171.87" x2="1624.12" y2="711.621">
		<stop class="stop0" offset="0" stop-opacity="1" stop-color="rgb(0,73,190)"/>
		<stop class="stop1" offset="1" stop-opacity="1" stop-color="rgb(13,100,221)"/>
	</linearGradient>
	<linearGradient id="Gradient6" gradientUnits="userSpaceOnUse" x1="773.785" y1="890.001" x2="685.157" y2="999.234">
		<stop class="stop0" offset="0" stop-opacity="1" stop-color="rgb(214,138,0)"/>
		<stop class="stop1" offset="1" stop-opacity="1" stop-color="rgb(255,194,36)"/>
	</linearGradient>
	<linearGradient id="Gradient7" gradientUnits="userSpaceOnUse" x1="328.09" y1="573.892" x2="345.541" y2="525.184">
		<stop class="stop0" offset="0" stop-opacity="1" stop-color="rgb(2,90,212)"/>
		<stop class="stop1" offset="1" stop-opacity="1" stop-color="rgb(35,144,255)"/>
	</linearGradient>
	<linearGradient id="Gradient8" gradientUnits="userSpaceOnUse" x1="761.699" y1="645.53" x2="670.264" y2="987.631">
		<stop class="stop0" offset="0" stop-opacity="1" stop-color="rgb(0,11,51)"/>
		<stop class="stop1" offset="1" stop-opacity="1" stop-color="rgb(2,49,121)"/>
	</linearGradient>
	<linearGradient id="Gradient9" gradientUnits="userSpaceOnUse" x1="1181.38" y1="901.609" x2="941.24" y2="-201.291">
		<stop class="stop0" offset="0" stop-opacity="1" stop-color="rgb(192,225,250)"/>
		<stop class="stop1" offset="1" stop-opacity="1" stop-color="rgb(255,255,254)"/>
	</linearGradient>
</defs>
<path transform="translate(0,0)" fill="url(#Gradient9)" d="M 0 0 L 2048 0 L 2048 401.687 L 2048 633.792 L 2048 640.427 L 2048 697.421 L 2048 1153 L 1335.81 1153 L 1215.9 1153 L 1205.66 1153 L 1127.49 1153 L 874.869 1153 L 868.397 1153 L 0 1153 L 0 644.727 L 0 640.044 L 0 461.608 L 0 457.031 L 0 438.412 L 0 397.391 L 0 351.727 L 0 178.212 L 0 158.542 L 0 0 z"/>
<path transform="translate(0,0)" fill="url(#Gradient8)" d="M 1.77636e-14 397.391 C 34.8902 398.224 69.734 400.432 104.45 404.009 C 162.589 409.995 220.316 419.473 277.317 432.391 C 297.389 437.006 317.407 441.855 337.366 446.938 C 346.636 449.309 361.92 453.767 370.838 455.407 C 404.916 465.926 438.323 475.598 472.258 486.845 C 557.106 514.498 639.745 548.519 719.47 588.617 C 762.049 610.527 803.338 634.855 843.137 661.482 C 954.02 735.768 1056.62 826.574 1184.69 874.109 C 1192.72 877.09 1215.11 885.712 1222.55 885.888 C 1231.26 889.547 1243.31 892.199 1252.69 894.473 C 1345.42 915.39 1424.65 893.062 1507.26 853.485 C 1510.03 851.702 1515.31 849.008 1518.36 847.315 L 1518.63 849.595 C 1495.68 869.84 1468.65 926.245 1451.98 954.492 C 1409.52 1026.47 1353.83 1086.8 1279.11 1126.07 C 1270.13 1130.79 1247.69 1141.95 1238.6 1144.22 L 1237.61 1144.47 L 1227.1 1148.41 C 1222.65 1149.25 1219.05 1149.54 1215.9 1153 L 1205.66 1153 L 1127.49 1153 L 874.869 1153 L 868.397 1153 L 0 1153 L 0 644.727 L 0 640.044 L 0 461.608 L 0 457.031 L 0 438.412 L 0 397.391 z"/>
<path transform="translate(0,0)" fill="rgb(1,31,85)" d="M 2.13163e-14 640.044 C 45.3704 642.001 90.5911 646.56 135.439 653.698 C 139.6 654.365 162.512 658.22 165.75 659.465 L 163.97 660.665 C 166.291 662.855 209.742 673.534 216.557 675.39 C 240.889 682.191 265.006 689.741 288.873 698.028 C 310.901 705.196 332.076 714.69 353.635 723.106 C 357.396 724.574 361.202 725.929 364.731 727.91 C 372.876 739.636 393.702 742.481 397.245 750.452 C 400.452 752.377 419.597 763.907 422.099 764.526 C 442.194 777.8 462.257 789.865 482.106 803.748 C 626.617 904.822 725.363 1050.04 868.397 1153 L 0 1153 L 0 644.727 L 0 640.044 z"/>
<path transform="translate(0,0)" fill="rgb(228,143,11)" d="M 2.13163e-14 640.044 C 45.3704 642.001 90.5911 646.56 135.439 653.698 C 139.6 654.365 162.512 658.22 165.75 659.465 L 163.97 660.665 C 166.291 662.855 209.742 673.534 216.557 675.39 C 240.889 682.191 265.006 689.741 288.873 698.028 C 292.04 699.817 292.312 700.201 294.293 703.27 C 195.873 668.76 104.744 648.698 0 644.727 L 0 640.044 z"/>
<path transform="translate(0,0)" fill="rgb(247,176,25)" d="M 288.873 698.028 C 310.901 705.196 332.076 714.69 353.635 723.106 C 357.396 724.574 361.202 725.929 364.731 727.91 C 372.876 739.636 393.702 742.481 397.245 750.452 C 394.066 749.143 389.377 746.625 386.346 744.894 C 356.682 727.954 325.557 716.683 294.293 703.27 C 292.312 700.201 292.04 699.817 288.873 698.028 z"/>
<path transform="translate(0,0)" fill="rgb(3,69,185)" d="M 1.77636e-14 397.391 C 34.8902 398.224 69.734 400.432 104.45 404.009 C 162.589 409.995 220.316 419.473 277.317 432.391 C 297.389 437.006 317.407 441.855 337.366 446.938 C 346.636 449.309 361.92 453.767 370.838 455.407 C 404.916 465.926 438.323 475.598 472.258 486.845 C 557.106 514.498 639.745 548.519 719.47 588.617 C 762.049 610.527 803.338 634.855 843.137 661.482 C 954.02 735.768 1056.62 826.574 1184.69 874.109 C 1192.72 877.09 1215.11 885.712 1222.55 885.888 C 1231.26 889.547 1243.31 892.199 1252.69 894.473 L 1250.35 895.233 C 1256.83 897.507 1283.11 899.16 1286.09 901.796 C 1286.89 902.502 1288.16 905.136 1288.7 906.117 C 1294.83 917.216 1384.54 941.202 1402.74 952.435 C 1405.49 954.127 1407.39 956.51 1409.31 959.04 C 1403.84 962.011 1375.06 976.091 1372.74 978.336 C 1354.81 985.412 1336.01 990.051 1316.84 992.13 C 1156.21 1009.98 992.211 869.19 869.656 783.461 C 842.629 764.453 815.14 746.109 787.214 728.447 C 777.815 722.503 750.654 706.928 743.802 701.461 C 730.992 695.386 709.582 682.308 696.49 675.114 C 670.759 661.114 644.641 647.839 618.165 635.305 C 502.919 581.681 382.587 539.747 258.975 510.132 C 211.234 498.272 163.131 487.924 114.737 479.103 C 96.7517 475.931 78.7336 472.948 60.6857 470.153 C 52.434 468.892 37.4826 467.444 30.1556 465.187 C 23.6373 465.051 7.37209 462.497 0 461.608 L 0 457.031 L 0 438.412 L 0 397.391 z"/>
<path transform="translate(0,0)" fill="url(#Gradient7)" d="M 0 457.031 C 8.52597 458.102 45.2529 462.242 51.2874 464.067 C 234.455 490.368 413.341 540.775 583.293 613.978 C 610.677 626.081 653.412 645.202 678.924 660.187 L 678.113 660.8 C 674.165 659.017 660.705 651.767 657.719 651.449 C 663.527 659.404 740.025 693.509 743.802 701.461 C 730.992 695.386 709.582 682.308 696.49 675.114 C 670.759 661.114 644.641 647.839 618.165 635.305 C 502.919 581.681 382.587 539.747 258.975 510.132 C 211.234 498.272 163.131 487.924 114.737 479.103 C 96.7517 475.931 78.7336 472.948 60.6857 470.153 C 52.434 468.892 37.4826 467.444 30.1556 465.187 C 23.6373 465.051 7.37209 462.497 0 461.608 L 0 457.031 z"/>
<path transform="translate(0,0)" fill="rgb(4,83,202)" d="M 0 457.031 C 8.52597 458.102 45.2529 462.242 51.2874 464.067 C 42.1828 464.603 17.6324 459.518 14.2446 461.756 C 18.9042 462.072 26.6417 462.128 30.1556 465.187 C 23.6373 465.051 7.37209 462.497 0 461.608 L 0 457.031 z"/>
<path transform="translate(0,0)" fill="url(#Gradient6)" d="M 364.731 727.91 C 374.106 730.745 383.294 733.809 392.244 737.818 C 405.667 743.83 460.051 773.735 466.493 773.682 C 466.804 773.679 467.114 773.695 467.425 773.69 C 467.612 773.687 467.798 773.669 467.985 773.659 C 452.192 763.633 434.054 754.951 417.559 746.146 C 411.858 743.102 397.7 736.955 393.103 733.607 C 401.939 732.955 435.354 754.133 445.729 758.192 C 455.243 761.914 467.639 766.371 474.905 773.737 C 480.066 775.166 486.689 776.399 491.214 778.213 C 500.041 781.752 549.13 807.849 553.243 813.539 C 566.45 817.192 574.565 828.397 585.526 833.598 L 585.268 835.022 C 590.965 837.361 597.28 844.222 602.652 848.019 C 621.511 861.35 639.28 876.295 657.141 890.87 C 666.994 900.296 670.342 908.579 683.399 914.232 C 688.927 916.625 693.951 926.266 701.874 927.933 C 710.527 929.755 714.653 944.959 718.587 949.686 C 714.271 948.355 712.739 947.727 708.254 947.767 L 710.035 947.56 L 708.083 948.7 C 712.128 951.699 715.927 953.74 720.335 956.144 C 720.315 953.337 719.681 950.603 721.165 949.032 C 728.78 954.08 744.528 968.15 752.003 974.61 C 750.534 977.05 749.55 973.963 747.577 977.834 C 756.814 988.408 805.677 1017.94 809.167 1025.6 C 863.074 1065.47 944.458 1105.26 1008.15 1126.38 C 1014.96 1128.64 1038.59 1136.12 1044.81 1136.94 C 1061.66 1141.56 1078.75 1145.24 1096.01 1147.96 C 1103.79 1149.19 1120.57 1151.17 1127.49 1153 L 874.869 1153 L 868.397 1153 C 725.363 1050.04 626.617 904.822 482.106 803.748 C 462.257 789.865 442.194 777.8 422.099 764.526 C 419.597 763.907 400.452 752.377 397.245 750.452 C 393.702 742.481 372.876 739.636 364.731 727.91 z"/>
<path transform="translate(0,0)" fill="rgb(1,31,85)" d="M 393.103 733.607 C 401.939 732.955 435.354 754.133 445.729 758.192 C 455.243 761.914 467.639 766.371 474.905 773.737 C 480.066 775.166 486.689 776.399 491.214 778.213 C 500.041 781.752 549.13 807.849 553.243 813.539 C 566.45 817.192 574.565 828.397 585.526 833.598 L 585.268 835.022 C 590.965 837.361 597.28 844.222 602.652 848.019 C 621.511 861.35 639.28 876.295 657.141 890.87 C 666.994 900.296 670.342 908.579 683.399 914.232 C 688.927 916.625 693.951 926.266 701.874 927.933 C 710.527 929.755 714.653 944.959 718.587 949.686 C 714.271 948.355 712.739 947.727 708.254 947.767 L 710.035 947.56 L 708.083 948.7 C 712.128 951.699 715.927 953.74 720.335 956.144 C 720.315 953.337 719.681 950.603 721.165 949.032 C 728.78 954.08 744.528 968.15 752.003 974.61 C 750.534 977.05 749.55 973.963 747.577 977.834 C 756.814 988.408 805.677 1017.94 809.167 1025.6 C 794.999 1017.55 771.339 999.293 757.463 989.065 C 711.895 955.478 668.733 918.171 624.243 883.059 C 593.119 858.291 561.184 834.56 528.491 811.903 C 511.633 800.401 493.149 789.797 476.835 778.453 L 467.985 773.659 C 452.192 763.633 434.054 754.951 417.559 746.146 C 411.858 743.102 397.7 736.955 393.103 733.607 z"/>
<path transform="translate(0,0)" fill="rgb(254,236,117)" d="M 422.099 764.526 C 427.965 762.757 443.267 773.785 449.128 777.434 C 532.621 829.419 605.394 899.519 673.89 969.393 C 704.755 1000.88 732.886 1031.11 764.236 1060.84 C 787.141 1082.77 810.968 1103.71 835.651 1123.61 C 844.351 1130.49 868.714 1147.24 874.869 1153 L 868.397 1153 C 725.363 1050.04 626.617 904.822 482.106 803.748 C 462.257 789.865 442.194 777.8 422.099 764.526 z"/>
<path transform="translate(0,0)" fill="rgb(7,50,118)" d="M 585.526 833.598 C 600.237 839.754 618.604 858.852 632.254 867.917 C 649.37 879.284 666.289 890.565 683.5 902.008 C 695.876 910.235 700.173 912.502 708.503 925.115 C 709.302 926.326 726.313 935.332 728.773 937.766 C 736.979 942.992 745.197 949.096 753.077 954.27 C 757.832 957.392 765.77 959.025 771.661 963.515 C 779.056 969.151 800.905 990.456 807.794 993.74 L 808.569 991.791 C 810.957 993.649 812.671 995.822 814.971 995.553 L 816.434 993.607 C 819.688 994.309 820.184 997.643 824.358 1000.2 C 837.559 1008.29 880.672 1027.15 887.643 1037.21 L 888.481 1037.39 C 902.242 1040.44 919.781 1048.95 932.228 1052.21 C 944.752 1055.48 941.339 1034.65 962.99 1054.74 C 966.184 1054.77 994.647 1053.37 993.543 1052.99 C 1013.8 1059.91 1022.14 1061.49 1043.86 1059.79 L 1044.4 1061.3 C 1053.45 1059.65 1056.86 1074.6 1059.35 1075.04 C 1064.73 1075.99 1072.89 1081.73 1078.23 1085.92 C 1079.34 1086.79 1082.56 1095.77 1083.76 1097.27 C 1098.92 1104.1 1108.84 1098.98 1123.92 1097.24 C 1127.27 1096.86 1149.9 1104.99 1152.91 1108.14 L 1153.43 1108.66 C 1153.83 1109.1 1154.22 1109.54 1154.62 1109.98 C 1157.94 1109.8 1163.62 1108.84 1164.83 1111.82 C 1172.04 1129.46 1177.79 1120.82 1191.35 1122.57 C 1201.96 1123.95 1200.04 1130.39 1214.49 1125.45 L 1215.36 1126.78 C 1219.32 1125.02 1221.55 1127.23 1225.66 1127.88 C 1231.69 1128.82 1230.11 1125.76 1236.58 1130.39 C 1237 1130.41 1241.52 1130.62 1241.5 1130.61 C 1245.97 1133.73 1251.19 1137.86 1256.82 1133.69 L 1255.65 1134.58 C 1249.01 1139.66 1243.53 1138.97 1238.6 1144.22 L 1237.61 1144.47 L 1227.1 1148.41 C 1222.65 1149.25 1219.05 1149.54 1215.9 1153 L 1205.66 1153 L 1127.49 1153 C 1120.57 1151.17 1103.79 1149.19 1096.01 1147.96 C 1078.75 1145.24 1061.66 1141.56 1044.81 1136.94 C 1038.59 1136.12 1014.96 1128.64 1008.15 1126.38 C 944.458 1105.26 863.074 1065.47 809.167 1025.6 C 805.677 1017.94 756.814 988.408 747.577 977.834 C 749.55 973.963 750.534 977.05 752.003 974.61 C 744.528 968.15 728.78 954.08 721.165 949.032 C 719.681 950.603 720.315 953.337 720.335 956.144 C 715.927 953.74 712.128 951.699 708.083 948.7 L 710.035 947.56 L 708.254 947.767 C 712.739 947.727 714.271 948.355 718.587 949.686 C 714.653 944.959 710.527 929.755 701.874 927.933 C 693.951 926.266 688.927 916.625 683.399 914.232 C 670.342 908.579 666.994 900.296 657.141 890.87 C 639.28 876.295 621.511 861.35 602.652 848.019 C 597.28 844.222 590.965 837.361 585.268 835.022 L 585.526 833.598 z"/>
<path transform="translate(0,0)" fill="rgb(1,31,85)" d="M 1044.81 1136.94 C 1060.22 1134.99 1097.39 1143.99 1115.5 1145.6 C 1143.86 1148.12 1169.85 1148.79 1198.36 1146.96 C 1207.1 1146.37 1231.23 1141.03 1237.61 1144.47 L 1227.1 1148.41 C 1222.65 1149.25 1219.05 1149.54 1215.9 1153 L 1205.66 1153 L 1127.49 1153 C 1120.57 1151.17 1103.79 1149.19 1096.01 1147.96 C 1078.75 1145.24 1061.66 1141.56 1044.81 1136.94 z"/>
<path transform="translate(0,0)" fill="rgb(1,31,85)" d="M 1252.69 894.473 C 1345.42 915.39 1424.65 893.062 1507.26 853.485 C 1503.15 862.465 1435.99 885.704 1424.27 888.827 C 1421.17 889.654 1408.31 892.812 1406.71 894.371 C 1406.27 898.37 1408.56 906.153 1411.07 908.967 C 1415.34 913.742 1425.36 916.518 1430.98 920.191 C 1436.52 923.806 1439.32 929.145 1444.51 932.727 C 1448.96 928.804 1461.68 916.048 1465.73 913.559 C 1448.51 935.363 1399.89 971.844 1372.74 978.336 C 1375.06 976.091 1403.84 962.011 1409.31 959.04 C 1407.39 956.51 1405.49 954.127 1402.74 952.435 C 1384.54 941.202 1294.83 917.216 1288.7 906.117 C 1288.16 905.136 1286.89 902.502 1286.09 901.796 C 1283.11 899.16 1256.83 897.507 1250.35 895.233 L 1252.69 894.473 z"/>
<path transform="translate(0,0)" fill="rgb(254,236,117)" d="M 165.75 659.465 C 248.517 674.748 316.651 700.771 393.103 733.607 C 397.7 736.955 411.858 743.102 417.559 746.146 C 434.054 754.951 452.192 763.633 467.985 773.659 C 467.798 773.669 467.612 773.687 467.425 773.69 C 467.114 773.695 466.804 773.679 466.493 773.682 C 460.051 773.735 405.667 743.83 392.244 737.818 C 383.294 733.809 374.106 730.745 364.731 727.91 C 361.202 725.929 357.396 724.574 353.635 723.106 C 332.076 714.69 310.901 705.196 288.873 698.028 C 265.006 689.741 240.889 682.191 216.557 675.39 C 209.742 673.534 166.291 662.855 163.97 660.665 L 165.75 659.465 z"/>
<path transform="translate(0,0)" fill="url(#Gradient5)" d="M 2048 640.427 L 2048 697.421 L 2048 1153 L 1335.81 1153 L 1215.9 1153 C 1219.05 1149.54 1222.65 1149.25 1227.1 1148.41 L 1237.61 1144.47 L 1238.6 1144.22 C 1247.69 1141.95 1270.13 1130.79 1279.11 1126.07 C 1353.83 1086.8 1409.52 1026.47 1451.98 954.492 C 1468.65 926.245 1495.68 869.84 1518.63 849.595 C 1545.06 837.969 1568.74 821.428 1593.77 807.434 C 1609.19 798.812 1630.28 782.57 1646.74 779.682 C 1644.73 783.87 1631.58 790.668 1626.76 795.211 C 1633.63 797.217 1663.04 778.419 1669.83 774.376 C 1688.88 761.264 1711.04 750.155 1731.68 739.563 C 1745.46 732.485 1764.1 726.917 1776.2 717.354 C 1783.03 714.74 1807.25 707.342 1811.03 703.423 L 1810.31 701.426 C 1814.47 699.257 1824.17 695.563 1826.13 694.361 C 1825.49 693.165 1825.33 692.704 1824.36 691.71 L 1825.12 690.797 C 1832.43 690.953 1832.63 689.647 1837.15 684.192 C 1841.69 681.694 1859.98 676.11 1865.53 674.522 C 1879.05 669.561 1895.98 665.546 1910.14 661.425 C 1936.36 655.232 1962.8 649.994 1989.4 645.722 C 2004.71 645.375 2030.42 641.416 2048 640.427 z"/>
<path transform="translate(0,0)" fill="url(#Gradient4)" d="M 2048 640.427 L 2048 697.421 C 2035.48 696.899 2023.03 690.65 2010.75 688.843 C 1978.36 684.076 1948.64 683.092 1916.02 687.814 C 1852.69 696.981 1790.53 715.973 1733.55 745.322 C 1714.63 755.069 1696.52 765.764 1676.85 774.154 C 1675.48 774.776 1671.5 774.49 1669.83 774.376 C 1688.88 761.264 1711.04 750.155 1731.68 739.563 C 1745.46 732.485 1764.1 726.917 1776.2 717.354 C 1783.03 714.74 1807.25 707.342 1811.03 703.423 L 1810.31 701.426 C 1814.47 699.257 1824.17 695.563 1826.13 694.361 C 1825.49 693.165 1825.33 692.704 1824.36 691.71 L 1825.12 690.797 C 1832.43 690.953 1832.63 689.647 1837.15 684.192 C 1841.69 681.694 1859.98 676.11 1865.53 674.522 C 1879.05 669.561 1895.98 665.546 1910.14 661.425 C 1936.36 655.232 1962.8 649.994 1989.4 645.722 C 2004.71 645.375 2030.42 641.416 2048 640.427 z"/>
<path transform="translate(0,0)" fill="rgb(3,69,185)" d="M 1227.1 1148.41 L 1226.14 1150.51 L 1227.42 1151.44 C 1257.86 1143.13 1289.14 1125.62 1315.82 1109.15 L 1316.18 1110.07 C 1308.07 1116.3 1269.86 1134.71 1280.93 1148.25 C 1291.07 1154.16 1330.56 1144.82 1335.81 1153 L 1215.9 1153 C 1219.05 1149.54 1222.65 1149.25 1227.1 1148.41 z"/>
<path transform="translate(0,0)" fill="url(#Gradient3)" d="M 1993.32 408.717 C 1996.34 406.452 2040.61 402.792 2048 401.687 L 2048 633.792 L 2048 640.427 C 2030.42 641.416 2004.71 645.375 1989.4 645.722 C 1962.8 649.994 1936.36 655.232 1910.14 661.425 C 1895.98 665.546 1879.05 669.561 1865.53 674.522 C 1859.98 676.11 1841.69 681.694 1837.15 684.192 C 1832.63 689.647 1832.43 690.953 1825.12 690.797 L 1824.36 691.71 C 1825.33 692.704 1825.49 693.165 1826.13 694.361 C 1824.17 695.563 1814.47 699.257 1810.31 701.426 L 1811.03 703.423 C 1807.25 707.342 1783.03 714.74 1776.2 717.354 C 1764.1 726.917 1745.46 732.485 1731.68 739.563 C 1711.04 750.155 1688.88 761.264 1669.83 774.376 C 1663.04 778.419 1633.63 797.217 1626.76 795.211 C 1631.58 790.668 1644.73 783.87 1646.74 779.682 C 1630.28 782.57 1609.19 798.812 1593.77 807.434 C 1568.74 821.428 1545.06 837.969 1518.63 849.595 L 1518.36 847.315 C 1515.31 849.008 1510.03 851.702 1507.26 853.485 C 1424.65 893.062 1345.42 915.39 1252.69 894.473 C 1243.31 892.199 1231.26 889.547 1222.55 885.888 C 1232.19 885.994 1241.83 885.751 1251.45 885.159 C 1292.43 882.277 1332.49 871.711 1369.56 854.013 C 1486.9 799.006 1542.21 701.406 1623.16 607.846 C 1702.77 515.838 1799.75 453.445 1917.82 423.604 C 1936.29 418.935 1974.42 409.895 1993.32 408.717 z"/>
<path transform="translate(0,0)" fill="url(#Gradient2)" d="M 1993.32 408.717 C 1996.34 406.452 2040.61 402.792 2048 401.687 L 2048 633.792 L 2048 640.427 C 2030.42 641.416 2004.71 645.375 1989.4 645.722 C 1962.8 649.994 1936.36 655.232 1910.14 661.425 C 1895.98 665.546 1879.05 669.561 1865.53 674.522 C 1859.4 673.825 1856.21 676.215 1852.6 674.688 L 1852.59 671.24 C 1815.72 684.681 1790.12 696.642 1754.99 711.36 C 1750.47 710.248 1748.41 714.901 1745.16 710.133 C 1745.9 701.027 1799.31 664.792 1809.49 655.232 C 1858 609.654 1918.21 591.796 1979.73 570.318 C 1987.77 567.514 2033.5 564.274 2044.08 557.29 C 2045.41 551.797 2045.49 413.79 2044.54 405.112 C 2039.11 402.243 1998.02 412.038 1993.32 408.717 z"/>
<path transform="translate(0,0)" fill="rgb(254,211,65)" d="M 1984.77 640.318 C 1992.31 643.251 2006.16 636.798 2012.65 640.496 C 2008.65 642.237 1994.72 643.521 1989.64 644.125 L 1989.4 645.722 C 1962.8 649.994 1936.36 655.232 1910.14 661.425 C 1910.38 659.424 1912.91 656.274 1914.18 654.44 C 1935.35 649.681 1963.23 641.767 1984.77 640.318 z"/>
<path transform="translate(0,0)" fill="rgb(254,236,117)" d="M 1852.59 671.24 C 1872.19 664.848 1894.05 658.196 1914.18 654.44 C 1912.91 656.274 1910.38 659.424 1910.14 661.425 C 1895.98 665.546 1879.05 669.561 1865.53 674.522 C 1859.4 673.825 1856.21 676.215 1852.6 674.688 L 1852.59 671.24 z"/>
<path transform="translate(0,0)" fill="rgb(247,176,25)" d="M 1984.77 640.318 C 2003.28 636.828 2029.46 634.353 2048 633.792 L 2048 640.427 C 2030.42 641.416 2004.71 645.375 1989.4 645.722 L 1989.64 644.125 C 1994.72 643.521 2008.65 642.237 2012.65 640.496 C 2006.16 636.798 1992.31 643.251 1984.77 640.318 z"/>
<path transform="translate(0,0)" fill="url(#Gradient1)" d="M 1754.99 711.36 C 1790.12 696.642 1815.72 684.681 1852.59 671.24 L 1852.6 674.688 C 1856.21 676.215 1859.4 673.825 1865.53 674.522 C 1859.98 676.11 1841.69 681.694 1837.15 684.192 C 1832.63 689.647 1832.43 690.953 1825.12 690.797 L 1824.36 691.71 C 1825.33 692.704 1825.49 693.165 1826.13 694.361 C 1824.17 695.563 1814.47 699.257 1810.31 701.426 L 1811.03 703.423 C 1807.25 707.342 1783.03 714.74 1776.2 717.354 C 1764.1 726.917 1745.46 732.485 1731.68 739.563 C 1711.04 750.155 1688.88 761.264 1669.83 774.376 C 1663.04 778.419 1633.63 797.217 1626.76 795.211 C 1631.58 790.668 1644.73 783.87 1646.74 779.682 C 1630.28 782.57 1609.19 798.812 1593.77 807.434 C 1568.74 821.428 1545.06 837.969 1518.63 849.595 L 1518.36 847.315 C 1530.06 841.49 1565.47 822.475 1575.46 814.65 C 1581.55 808.324 1603.36 795.912 1611.66 790.718 C 1658.59 761.34 1705.3 735.773 1754.99 711.36 z"/>
<path transform="translate(0,0)" fill="rgb(3,69,185)" d="M 1646.95 773.322 C 1663.25 771.694 1698.4 750.242 1715.32 742.246 C 1730.36 735.138 1745.4 729.437 1760.89 723.552 C 1766.08 721.583 1770.87 719.048 1776.2 717.354 C 1764.1 726.917 1745.46 732.485 1731.68 739.563 C 1711.04 750.155 1688.88 761.264 1669.83 774.376 C 1663.04 778.419 1633.63 797.217 1626.76 795.211 C 1631.58 790.668 1644.73 783.87 1646.74 779.682 C 1630.28 782.57 1609.19 798.812 1593.77 807.434 C 1568.74 821.428 1545.06 837.969 1518.63 849.595 L 1518.36 847.315 C 1530.06 841.49 1565.47 822.475 1575.46 814.65 C 1596.38 804.96 1624.95 783.223 1646.95 773.322 z"/>
<path transform="translate(0,0)" fill="rgb(1,31,85)" d="M 1771.87 709.747 C 1777.33 710.938 1779.09 711.587 1784.64 709.518 C 1793.29 706.296 1801.31 703.587 1810.31 701.426 L 1811.03 703.423 C 1807.25 707.342 1783.03 714.74 1776.2 717.354 C 1770.87 719.048 1766.08 721.583 1760.89 723.552 C 1745.4 729.437 1730.36 735.138 1715.32 742.246 C 1698.4 750.242 1663.25 771.694 1646.95 773.322 C 1652.78 769.14 1670.89 759.597 1677.62 755.942 C 1708.32 739.128 1739.77 723.713 1771.87 709.747 z"/>
<path transform="translate(0,0)" fill="rgb(7,50,118)" d="M 1771.87 709.747 C 1790.21 701.352 1817.95 690.368 1837.15 684.192 C 1832.63 689.647 1832.43 690.953 1825.12 690.797 L 1824.36 691.71 C 1825.33 692.704 1825.49 693.165 1826.13 694.361 C 1824.17 695.563 1814.47 699.257 1810.31 701.426 C 1801.31 703.587 1793.29 706.296 1784.64 709.518 C 1779.09 711.587 1777.33 710.938 1771.87 709.747 z"/>
<path transform="translate(0,0)" fill="rgb(182,221,252)" d="M 0 351.727 C 18.0913 353.552 36.0261 355.156 54.0706 357.31 C 158.235 369.741 255.361 408.768 352.225 446.751 C 357.463 448.805 366.757 451.823 370.838 455.407 C 361.92 453.767 346.636 449.309 337.366 446.938 C 317.407 441.855 297.389 437.006 277.317 432.391 C 220.316 419.473 162.589 409.995 104.45 404.009 C 69.734 400.432 34.8902 398.224 1.77636e-14 397.391 L 0 351.727 z"/>
<path transform="translate(0,0)" fill="rgb(255,243,215)" d="M 0 158.542 C 28.0624 181.936 50.7131 201.195 80.4111 223.373 C 125.935 256.842 173.492 287.454 222.808 315.033 C 230.196 319.181 335.924 372.88 334.499 370.851 L 333.709 371.325 C 325.259 369.192 310.75 362.301 302.16 358.564 C 216.046 321.098 133.721 267.306 58.7171 211.106 C 41.8105 198.438 17.5733 181.022 3.12052 166.156 C 3.27847 169.857 3.8557 174.143 2.40606 177.39 L 0 178.212 L 0 158.542 z"/>
</svg>